<svg width="512" height="512" viewBox="0 0 512 512" fill="none" xmlns="http://www.w3.org/2000/svg">
  <!-- Background circle -->
  <circle cx="256" cy="256" r="256" fill="#0f172a"/>

  <!-- Gradient definition -->
  <defs>
    <linearGradient id="blueGradient" x1="0%" y1="0%" x2="100%" y2="100%">
      <stop offset="0%" style="stop-color:#2563eb;stop-opacity:1" />
      <stop offset="100%" style="stop-color:#3b82f6;stop-opacity:1" />
    </linearGradient>

    <linearGradient id="accentGradient" x1="0%" y1="0%" x2="100%" y2="0%">
      <stop offset="0%" style="stop-color:#60a5fa;stop-opacity:1" />
      <stop offset="100%" style="stop-color:#2563eb;stop-opacity:1" />
    </linearGradient>
  </defs>

  <!-- Stylized S with growth arrow integrated -->
  <path d="M 256 120 C 200 120 160 145 160 180 C 160 210 185 230 230 240 L 282 252 C 310 258 325 268 325 285 C 325 305 305 320 256 320 C 210 320 185 305 180 280 L 140 290 C 148 330 195 360 256 360 C 315 360 365 335 365 285 C 365 250 340 230 290 220 L 238 208 C 210 202 200 192 200 180 C 200 165 220 155 256 155 C 295 155 315 168 320 190 L 360 180 C 352 145 310 120 256 120 Z" fill="url(#blueGradient)"/>

  <!-- Upward growth arrow (subtle, integrated) -->
  <path d="M 340 160 L 360 140 L 380 160 M 360 145 L 360 200" stroke="url(#accentGradient)" stroke-width="12" stroke-linecap="round" stroke-linejoin="round" fill="none"/>

  <!-- Analytics dots (data points) -->
  <circle cx="150" cy="380" r="8" fill="#2563eb" opacity="0.6"/>
  <circle cx="190" cy="360" r="8" fill="#2563eb" opacity="0.7"/>
  <circle cx="230" cy="370" r="8" fill="#2563eb" opacity="0.8"/>
  <circle cx="270" cy="350" r="8" fill="#3b82f6" opacity="0.9"/>
  <circle cx="310" cy="340" r="8" fill="#60a5fa"/>

  <!-- Connecting line (growth trend) -->
  <path d="M 150 380 L 190 360 L 230 370 L 270 350 L 310 340" stroke="#2563eb" stroke-width="3" fill="none" opacity="0.4"/>
</svg>
